<svg xmlns="http://www.w3.org/2000/svg" viewBox="0 0 160 160" role="img" aria-labelledby="title desc">
  <title id="title">Svn-Hub logo</title>
  <desc id="desc">Rounded blue square with four white corner dots and the white Subversion swash centered.</desc>
  <rect width="160" height="160" rx="30" fill="#809cc9"/>
  <g fill="#fff" fill-opacity="0.85">
    <circle cx="32" cy="32" r="7"/>
    <circle cx="128" cy="32" r="7"/>
    <circle cx="32" cy="128" r="7"/>
    <circle cx="128" cy="128" r="7"/>
  </g>
  <g transform="translate(80 80) scale(0.42) translate(-75.558 -40.256)">
    <path fill="#fff" d="M130.473 0l1.662 6.583c-15.285 2.216-28.886 4.828-40.802 7.837-12.857 3.247-23.198 6.546-31.025 9.896-7.844 3.284-11.507 5.952-10.99 8 .456 1.807 3.735 2.626 9.863 2.453 3.141-.058 8.252-.399 15.335-1.028 7.083-.626 16.221-1.536 27.415-2.726 20.599-2.144 34.762-3.077 42.491-2.8 7.711.21 11.944 1.784 12.688 4.725 1.007 3.988-6.304 9.331-21.931 16.026-15.657 6.633-35.88 13.076-60.652 19.332-20.854 5.265-38.833 9.029-53.939 11.291l-1.645-6.51c17.868-2.555 33.937-5.633 48.205-9.236 13.326-3.364 23.594-6.629 30.8-9.799 7.205-3.169 10.533-5.84 9.983-8.019-.477-1.886-3.805-2.849-9.973-2.891-3.159.034-7.51.257-13.062.668-5.566.414-12.479 1.056-20.739 1.923-12.814 1.375-23.462 2.415-31.93 3.121-8.48.709-14.801 1.051-18.976 1.03-8.01-.074-12.39-1.62-13.15-4.628-1.024-4.061 5.74-9.195 20.295-15.403 14.707-6.268 34.63-12.576 59.795-18.93C97.595 6.521 114.355 2.883 130.473 0z"/>
  </g>
</svg>
